<svg width="14" height="14" viewBox="0 0 14 14" fill="none" xmlns="http://www.w3.org/2000/svg">
<path fill-rule="evenodd" clip-rule="evenodd" d="M4.73798 9.88071C4.89952 10.0422 5.14183 10.0153 5.30337 9.88071L7.99567 7.1884C8.18413 6.99994 8.50721 6.97302 8.74952 7.1884C8.99183 7.40379 8.9649 7.78071 8.74952 7.99609L5.43798 11.2538C4.71106 11.9807 3.49952 11.9807 2.7726 11.2538L2.74567 11.2269C2.01875 10.4999 2.01875 9.2884 2.74567 8.56148L8.58798 2.71917C9.3149 1.99225 10.5264 1.99225 11.2534 2.71917L11.2803 2.74609C12.0072 3.47302 12.0072 4.68456 11.2803 5.41148L11.2534 5.4384C11.1187 5.57302 11.0918 5.76148 11.1995 5.92302C11.3611 6.21917 11.4957 6.54225 11.5764 6.86532C11.6303 7.08071 11.8726 7.13455 12.0341 6.99994C12.2495 6.78455 12.438 6.56917 12.438 6.56917C13.8111 5.19609 13.8111 2.96148 12.438 1.5884H12.3841C11.0111 0.215325 8.77644 0.215325 7.40336 1.5884L1.56106 7.40379C0.187981 8.77686 0.187981 11.0115 1.56106 12.3846L1.6149 12.4384C2.98798 13.8115 5.19567 13.8115 6.56875 12.4384L9.90721 9.12686C10.7687 8.26532 10.7418 6.86532 9.85336 6.00379C8.99183 5.16917 7.59183 5.22302 6.75721 6.08455L4.11875 8.72302C3.95721 8.88455 3.95721 9.15379 4.11875 9.31532L4.73798 9.88071Z" fill="#747474"/>
</svg>
