<svg width="48" height="48" viewBox="0 0 48 48" fill="none" xmlns="http://www.w3.org/2000/svg">
<g clip-path="url(#clip0_561_4571)">
<rect width="48" height="48" rx="4" fill="#F2C618"/>
<mask id="mask0_561_4571" style="mask-type:alpha" maskUnits="userSpaceOnUse" x="9" y="8" width="32" height="32">
<rect x="9" y="8" width="32" height="32" fill="#D9D9D9"/>
</mask>
<g mask="url(#mask0_561_4571)">
<mask id="mask1_561_4571" style="mask-type:alpha" maskUnits="userSpaceOnUse" x="22" y="4" width="25" height="24">
<rect x="22.332" y="4" width="24" height="24" fill="#D9D9D9"/>
</mask>
<g mask="url(#mask1_561_4571)">
<path d="M32.332 20.4L28.332 16.4L29.732 15L32.332 17.6L38.932 11L40.332 12.4L32.332 20.4Z" fill="white"/>
</g>
<path d="M23.666 36C21.9993 36 20.4382 35.6889 18.9827 35.0667C17.5271 34.4444 16.2549 33.5889 15.166 32.5C14.0771 31.4111 13.2216 30.1389 12.5993 28.6833C11.9771 27.2278 11.666 25.6667 11.666 24C11.666 22.3333 11.9771 20.7722 12.5993 19.3167C13.2216 17.8611 14.0771 16.5889 15.166 15.5C16.2549 14.4111 17.5271 13.5556 18.9827 12.9333C20.4382 12.3111 21.9993 12 23.666 12C24.1327 12 24.5827 12.0278 25.016 12.0833C25.4493 12.1389 25.8882 12.2222 26.3327 12.3333V15.0667C25.8882 14.9333 25.4493 14.8333 25.016 14.7667C24.5827 14.7 24.1327 14.6667 23.666 14.6667C21.0438 14.6667 18.8327 15.5667 17.0327 17.3667C15.2327 19.1667 14.3327 21.3778 14.3327 24C14.3327 26.6222 15.2327 28.8333 17.0327 30.6333C18.8327 32.4333 21.0438 33.3333 23.666 33.3333C26.2882 33.3333 28.4993 32.4333 30.2994 30.6333C32.0993 28.8333 32.9993 26.6222 32.9993 24C32.9993 23.7556 32.9882 23.5333 32.966 23.3333C32.9438 23.1333 32.9105 22.9111 32.866 22.6667H35.5993C35.6438 22.9111 35.666 23.1333 35.666 23.3333V24C35.666 25.6667 35.3549 27.2278 34.7327 28.6833C34.1105 30.1389 33.2549 31.4111 32.166 32.5C31.0771 33.5889 29.8049 34.4444 28.3493 35.0667C26.8938 35.6889 25.3327 36 23.666 36ZM27.3993 29.6L22.3327 24.5333V17.3333H24.9993V23.4667L29.266 27.7333L27.3993 29.6Z" fill="white"/>
</g>
</g>
<defs>
<clipPath id="clip0_561_4571">
<rect width="48" height="48" fill="white"/>
</clipPath>
</defs>
</svg>
