<svg width="16" height="16" viewBox="0 0 16 16" fill="none" xmlns="http://www.w3.org/2000/svg">
<path d="M2.93056 5.15699L7.61556 9.76799C7.71779 9.86912 7.85577 9.92584 7.99956 9.92584C8.14336 9.92584 8.28134 9.86912 8.38356 9.76799L13.0686 5.15799C13.1714 5.05691 13.3099 5.00028 13.4541 5.00028C13.5983 5.00028 13.7367 5.05691 13.8396 5.15799C13.8902 5.20737 13.9305 5.26638 13.9579 5.33156C13.9854 5.39674 13.9996 5.46675 13.9996 5.53749C13.9996 5.60822 13.9854 5.67824 13.9579 5.74342C13.9305 5.8086 13.8902 5.86761 13.8396 5.91699L9.15556 10.527C8.84704 10.8299 8.43194 10.9996 7.99956 10.9996C7.56719 10.9996 7.15209 10.8299 6.84356 10.527L2.15956 5.91699C2.10876 5.8676 2.06838 5.80852 2.04081 5.74325C2.01323 5.67798 1.99902 5.60784 1.99902 5.53699C1.99902 5.46613 2.01323 5.396 2.04081 5.33073C2.06838 5.26546 2.10876 5.20638 2.15956 5.15699C2.26242 5.05591 2.40086 4.99928 2.54506 4.99928C2.68927 4.99928 2.82771 5.05591 2.93056 5.15699Z" fill="black"/>
</svg>
