<svg width="24" height="24" viewBox="0 0 24 24" fill="none" xmlns="http://www.w3.org/2000/svg">
<path fill-rule="evenodd" clip-rule="evenodd" d="M22.3846 14.3076H21C20.6308 14.3076 20.3077 14.6307 20.3077 14.9999V19.6154C20.3077 19.9846 19.9846 20.3077 19.6154 20.3077H4.38463C4.0154 20.3077 3.69233 19.9846 3.69233 19.6154V14.9999C3.69233 14.6307 3.36925 14.3076 3.00002 14.3076H1.6154C1.24617 14.3076 0.923096 14.6307 0.923096 14.9999V21.2308C0.923096 22.2462 1.75387 23.077 2.76925 23.077H21.2308C22.2462 23.077 23.0769 22.2462 23.0769 21.2308V14.9999C23.0769 14.6307 22.7539 14.3076 22.3846 14.3076ZM11.5385 17.3541C11.8154 17.631 12.2308 17.631 12.5077 17.3541L18.7385 11.1233C19.0154 10.8463 19.0154 10.4309 18.7385 10.154L17.7693 9.18476C17.4924 8.90783 17.077 8.90783 16.8001 9.18476L14.2154 11.7694C13.9385 12.0463 13.4308 11.8617 13.4308 11.4463V1.61541C13.3847 1.24618 13.0154 0.923096 12.6924 0.923096H11.3077C10.9385 0.923096 10.6154 1.24618 10.6154 1.61541V11.4002C10.6154 11.8156 10.1077 12.0002 9.83082 11.7233L7.24621 9.13861C6.96928 8.86168 6.5539 8.86168 6.27698 9.13861L5.30774 10.154C5.03082 10.4309 5.03082 10.8463 5.30774 11.1233L11.5385 17.3541Z" fill="#747474"/>
</svg>
