<svg width="29" height="30" viewBox="0 0 29 30" fill="none" xmlns="http://www.w3.org/2000/svg">
<g id="bitcoin-icons:edit-filled">
<path id="Vector" d="M4.81335 21.1672V23.8602C4.81335 24.016 4.87522 24.1653 4.98535 24.2755C5.09547 24.3856 5.24484 24.4474 5.40058 24.4474H8.09945C8.25489 24.4474 8.40397 24.3858 8.51403 24.276L19.6102 13.1798L16.0868 9.65651L4.986 20.7526C4.87579 20.8625 4.8137 21.0116 4.81335 21.1672ZM17.5408 8.20137L21.0641 11.7247L22.7788 10.01C22.999 9.78977 23.1227 9.4911 23.1227 9.17968C23.1227 8.86826 22.999 8.56959 22.7788 8.34935L20.9173 6.48668C20.6971 6.26651 20.3984 6.14282 20.087 6.14282C19.7756 6.14282 19.4769 6.26651 19.2567 6.48668L17.5408 8.20137Z" fill="black"/>
</g>
</svg>
