<svg width="24" height="24" viewBox="0 0 24 24" fill="none" xmlns="http://www.w3.org/2000/svg">
<rect width="24" height="24" rx="4" fill="#01AC61"/>
<path d="M19.5 8.65137V15.7501C19.5 16.324 19.2808 16.8763 18.887 17.2938C18.4933 17.7114 17.9549 17.9627 17.382 17.9964L17.25 18.0001H6.75C6.17609 18.0001 5.62386 17.7809 5.2063 17.3872C4.78874 16.9934 4.53742 16.455 4.50375 15.8821L4.5 15.7501V8.65137L11.5837 13.3741L11.6707 13.4236C11.7733 13.4737 11.8859 13.4998 12 13.4998C12.1141 13.4998 12.2267 13.4737 12.3293 13.4236L12.4163 13.3741L19.5 8.65137Z" fill="white"/>
<path d="M17.2502 6C18.0602 6 18.7705 6.4275 19.1665 7.07025L12.0002 11.8478L4.83398 7.07025C5.02203 6.76483 5.28039 6.5088 5.58752 6.32354C5.89464 6.13827 6.24161 6.02914 6.59948 6.00525L6.75023 6H17.2502Z" fill="white"/>
</svg>
