<svg width="44" height="44" viewBox="0 0 48 48" fill="none" xmlns="http://www.w3.org/2000/svg">
<g id="Standard Icons / E / employee_contact" clip-path="url(#clip0_229_1664)">
<rect id="Icon Background" width="48" height="48" rx="4" fill="#1B96FF"/>
<path id="employee_contact" d="M35.4239 14.256H12.6239C12.2457 14.256 11.8712 14.3305 11.5218 14.4752C11.1724 14.6199 10.8549 14.8321 10.5874 15.0995C10.32 15.3669 10.1079 15.6844 9.96312 16.0339C9.81839 16.3833 9.7439 16.7578 9.7439 17.136V30.864C9.7439 31.6278 10.0473 32.3603 10.5874 32.9004C11.1275 33.4406 11.8601 33.744 12.6239 33.744H35.3759C36.1397 33.744 36.8723 33.4406 37.4124 32.9004C37.9525 32.3603 38.2559 31.6278 38.2559 30.864V17.136C38.2405 16.3852 37.9386 15.6687 37.4121 15.1333C36.8856 14.5979 36.1743 14.284 35.4239 14.256ZM18.6719 16.848C19.3934 16.848 20.0987 17.0619 20.6986 17.4628C21.2985 17.8636 21.7661 18.4334 22.0422 19.1C22.3183 19.7665 22.3906 20.5 22.2498 21.2077C22.109 21.9153 21.7616 22.5653 21.2514 23.0755C20.7412 23.5857 20.0912 23.9331 19.3836 24.0739C18.6759 24.2146 17.9425 24.1424 17.2759 23.8663C16.6093 23.5902 16.0395 23.1226 15.6387 22.5227C15.2378 21.9228 15.0239 21.2175 15.0239 20.496C15.0314 19.5308 15.4182 18.6073 16.1007 17.9248C16.7832 17.2423 17.7067 16.8555 18.6719 16.848ZM23.3759 30.432H14.0159C13.1999 30.432 13.0559 29.904 13.0559 29.664C13.2364 28.3429 13.8909 27.1325 14.8977 26.2583C15.9044 25.384 17.1946 24.9055 18.5279 24.912H18.7199C20.0532 24.9055 21.3434 25.384 22.3501 26.2583C23.3568 27.1325 24.0114 28.3429 24.1919 29.664C24.3359 29.904 24.1919 30.432 23.3759 30.432ZM34.4639 27.12C34.4639 27.3746 34.3628 27.6188 34.1827 27.7988C34.0027 27.9788 33.7585 28.08 33.5039 28.08H29.2799C29.0253 28.08 28.7811 27.9788 28.6011 27.7988C28.421 27.6188 28.3199 27.3746 28.3199 27.12V25.68C28.3199 25.4254 28.421 25.1812 28.6011 25.0012C28.7811 24.8211 29.0253 24.72 29.2799 24.72H33.5039C33.7585 24.72 34.0027 24.8211 34.1827 25.0012C34.3628 25.1812 34.4639 25.4254 34.4639 25.68V27.12ZM34.4639 21.84C34.4639 22.0946 34.3628 22.3388 34.1827 22.5188C34.0027 22.6988 33.7585 22.8 33.5039 22.8H26.3999C26.1453 22.8 25.9011 22.6988 25.7211 22.5188C25.541 22.3388 25.4399 22.0946 25.4399 21.84V20.4C25.4399 20.1454 25.541 19.9012 25.7211 19.7212C25.9011 19.5411 26.1453 19.44 26.3999 19.44H33.5039C33.7585 19.44 34.0027 19.5411 34.1827 19.7212C34.3628 19.9012 34.4639 20.1454 34.4639 20.4V21.84Z" fill="white"/>
</g>
<defs>
<clipPath id="clip0_229_1664">
<rect width="48" height="48" fill="white"/>
</clipPath>
</defs>
</svg>
