<svg width="13" height="12" viewBox="0 0 13 12" fill="none" xmlns="http://www.w3.org/2000/svg">
<path d="M8 0.703613V6.70361C8 6.83622 7.94732 6.9634 7.85355 7.05717C7.75979 7.15094 7.63261 7.20361 7.5 7.20361H5C4.86739 7.20361 4.74021 7.15094 4.64645 7.05717C4.55268 6.9634 4.5 6.83622 4.5 6.70361V0.703613C4.5 0.571005 4.55268 0.443828 4.64645 0.35006C4.74021 0.256292 4.86739 0.203613 5 0.203613H7.5C7.63261 0.203613 7.75979 0.256292 7.85355 0.35006C7.94732 0.443828 8 0.571005 8 0.703613ZM12 0.203613H9.5C9.36739 0.203613 9.24021 0.256292 9.14645 0.35006C9.05268 0.443828 9 0.571005 9 0.703613V3.70361C9 3.83622 9.05268 3.9634 9.14645 4.05717C9.24021 4.15093 9.36739 4.20361 9.5 4.20361H12C12.1326 4.20361 12.2598 4.15093 12.3536 4.05717C12.4473 3.9634 12.5 3.83622 12.5 3.70361V0.703613C12.5 0.571005 12.4473 0.443828 12.3536 0.35006C12.2598 0.256292 12.1326 0.203613 12 0.203613ZM12 5.20361H9.5C9.36739 5.20361 9.24021 5.25629 9.14645 5.35006C9.05268 5.44383 9 5.571 9 5.70361V8.20361C9 8.46883 9.10536 8.72318 9.29289 8.91072C9.48043 9.09826 9.73478 9.20361 10 9.20361H11.5C11.7652 9.20361 12.0196 9.09826 12.2071 8.91072C12.3946 8.72318 12.5 8.46883 12.5 8.20361V5.70361C12.5 5.571 12.4473 5.44383 12.3536 5.35006C12.2598 5.25629 12.1326 5.20361 12 5.20361ZM3 0.203613H0.5C0.367392 0.203613 0.240215 0.256292 0.146447 0.35006C0.0526785 0.443828 0 0.571005 0 0.703613V3.70361C0 3.83622 0.0526785 3.9634 0.146447 4.05717C0.240215 4.15093 0.367392 4.20361 0.5 4.20361H3C3.13261 4.20361 3.25979 4.15093 3.35355 4.05717C3.44732 3.9634 3.5 3.83622 3.5 3.70361V0.703613C3.5 0.571005 3.44732 0.443828 3.35355 0.35006C3.25979 0.256292 3.13261 0.203613 3 0.203613ZM3 5.20361H0.5C0.367392 5.20361 0.240215 5.25629 0.146447 5.35006C0.0526785 5.44383 0 5.571 0 5.70361V10.2036C0 10.4688 0.105357 10.7232 0.292893 10.9107C0.48043 11.0983 0.734784 11.2036 1 11.2036H2.5C2.76522 11.2036 3.01957 11.0983 3.20711 10.9107C3.39464 10.7232 3.5 10.4688 3.5 10.2036V5.70361C3.5 5.571 3.44732 5.44383 3.35355 5.35006C3.25979 5.25629 3.13261 5.20361 3 5.20361Z" fill="#747474"/>
</svg>
