<svg width="24" height="24" viewBox="0 0 24 24" fill="none" xmlns="http://www.w3.org/2000/svg">
<rect width="24" height="24" rx="4" fill="#0176D3"/>
<mask id="mask0_161_7617" style="mask-type:alpha" maskUnits="userSpaceOnUse" x="3" y="3" width="18" height="18">
<rect x="3" y="3" width="18" height="18" fill="#D9D9D9"/>
</mask>
<g mask="url(#mask0_161_7617)">
<path d="M17.9625 18.75C16.4 18.75 14.8563 18.4094 13.3313 17.7281C11.8063 17.0469 10.4187 16.0813 9.16875 14.8313C7.91875 13.5813 6.95312 12.1937 6.27188 10.6687C5.59063 9.14375 5.25 7.6 5.25 6.0375C5.25 5.8125 5.325 5.625 5.475 5.475C5.625 5.325 5.8125 5.25 6.0375 5.25H9.075C9.25 5.25 9.40625 5.30937 9.54375 5.42812C9.68125 5.54688 9.7625 5.6875 9.7875 5.85L10.275 8.475C10.3 8.675 10.2938 8.84375 10.2563 8.98125C10.2188 9.11875 10.15 9.2375 10.05 9.3375L8.23125 11.175C8.48125 11.6375 8.77812 12.0844 9.12187 12.5156C9.46562 12.9469 9.84375 13.3625 10.2563 13.7625C10.6438 14.15 11.05 14.5094 11.475 14.8406C11.9 15.1719 12.35 15.475 12.825 15.75L14.5875 13.9875C14.7 13.875 14.8469 13.7906 15.0281 13.7344C15.2094 13.6781 15.3875 13.6625 15.5625 13.6875L18.15 14.2125C18.325 14.2625 18.4688 14.3531 18.5812 14.4844C18.6937 14.6156 18.75 14.7625 18.75 14.925V17.9625C18.75 18.1875 18.675 18.375 18.525 18.525C18.375 18.675 18.1875 18.75 17.9625 18.75ZM7.51875 9.75L8.75625 8.5125L8.4375 6.75H6.76875C6.83125 7.2625 6.91875 7.76875 7.03125 8.26875C7.14375 8.76875 7.30625 9.2625 7.51875 9.75ZM14.2313 16.4625C14.7188 16.675 15.2156 16.8438 15.7219 16.9688C16.2281 17.0938 16.7375 17.175 17.25 17.2125V15.5625L15.4875 15.2063L14.2313 16.4625Z" fill="white"/>
</g>
</svg>
