<svg width="40" height="40" viewBox="0 0 40 40" fill="none" xmlns="http://www.w3.org/2000/svg">
<rect width="40" height="40" fill="#F5F5F5"/>
<g id="Contacts" clip-path="url(#clip0_0_1)">
<rect width="1440" height="1161" transform="translate(-17 -18)" fill="white"/>
<g id="Group 117">
<rect id="Rectangle 19" x="-17.5" y="-17.5" width="1440" height="74" fill="white" stroke="#F0F0F0"/>
<g id="gg:menu-grid-o">
<path id="Vector" d="M13.3332 9.99996C13.3332 10.884 12.982 11.7319 12.3569 12.357C11.7317 12.9821 10.8839 13.3333 9.99984 13.3333C9.11578 13.3333 8.26794 12.9821 7.64281 12.357C7.01769 11.7319 6.6665 10.884 6.6665 9.99996C6.6665 9.1159 7.01769 8.26806 7.64281 7.64294C8.26794 7.01782 9.11578 6.66663 9.99984 6.66663C10.8839 6.66663 11.7317 7.01782 12.3569 7.64294C12.982 8.26806 13.3332 9.1159 13.3332 9.99996ZM13.3332 20C13.3332 20.884 12.982 21.7319 12.3569 22.357C11.7317 22.9821 10.8839 23.3333 9.99984 23.3333C9.11578 23.3333 8.26794 22.9821 7.64281 22.357C7.01769 21.7319 6.6665 20.884 6.6665 20C6.6665 19.1159 7.01769 18.2681 7.64281 17.6429C8.26794 17.0178 9.11578 16.6666 9.99984 16.6666C10.8839 16.6666 11.7317 17.0178 12.3569 17.6429C12.982 18.2681 13.3332 19.1159 13.3332 20ZM9.99984 33.3333C10.8839 33.3333 11.7317 32.9821 12.3569 32.357C12.982 31.7319 13.3332 30.884 13.3332 30C13.3332 29.1159 12.982 28.2681 12.3569 27.6429C11.7317 27.0178 10.8839 26.6666 9.99984 26.6666C9.11578 26.6666 8.26794 27.0178 7.64281 27.6429C7.01769 28.2681 6.6665 29.1159 6.6665 30C6.6665 30.884 7.01769 31.7319 7.64281 32.357C8.26794 32.9821 9.11578 33.3333 9.99984 33.3333ZM23.3332 9.99996C23.3332 10.884 22.982 11.7319 22.3569 12.357C21.7317 12.9821 20.8839 13.3333 19.9998 13.3333C19.1158 13.3333 18.2679 12.9821 17.6428 12.357C17.0177 11.7319 16.6665 10.884 16.6665 9.99996C16.6665 9.1159 17.0177 8.26806 17.6428 7.64294C18.2679 7.01782 19.1158 6.66663 19.9998 6.66663C20.8839 6.66663 21.7317 7.01782 22.3569 7.64294C22.982 8.26806 23.3332 9.1159 23.3332 9.99996ZM19.9998 23.3333C20.8839 23.3333 21.7317 22.9821 22.3569 22.357C22.982 21.7319 23.3332 20.884 23.3332 20C23.3332 19.1159 22.982 18.2681 22.3569 17.6429C21.7317 17.0178 20.8839 16.6666 19.9998 16.6666C19.1158 16.6666 18.2679 17.0178 17.6428 17.6429C17.0177 18.2681 16.6665 19.1159 16.6665 20C16.6665 20.884 17.0177 21.7319 17.6428 22.357C18.2679 22.9821 19.1158 23.3333 19.9998 23.3333ZM23.3332 30C23.3332 30.884 22.982 31.7319 22.3569 32.357C21.7317 32.9821 20.8839 33.3333 19.9998 33.3333C19.1158 33.3333 18.2679 32.9821 17.6428 32.357C17.0177 31.7319 16.6665 30.884 16.6665 30C16.6665 29.1159 17.0177 28.2681 17.6428 27.6429C18.2679 27.0178 19.1158 26.6666 19.9998 26.6666C20.8839 26.6666 21.7317 27.0178 22.3569 27.6429C22.982 28.2681 23.3332 29.1159 23.3332 30ZM29.9998 13.3333C30.8839 13.3333 31.7317 12.9821 32.3569 12.357C32.982 11.7319 33.3332 10.884 33.3332 9.99996C33.3332 9.1159 32.982 8.26806 32.3569 7.64294C31.7317 7.01782 30.8839 6.66663 29.9998 6.66663C29.1158 6.66663 28.2679 7.01782 27.6428 7.64294C27.0177 8.26806 26.6665 9.1159 26.6665 9.99996C26.6665 10.884 27.0177 11.7319 27.6428 12.357C28.2679 12.9821 29.1158 13.3333 29.9998 13.3333ZM33.3332 20C33.3332 20.884 32.982 21.7319 32.3569 22.357C31.7317 22.9821 30.8839 23.3333 29.9998 23.3333C29.1158 23.3333 28.2679 22.9821 27.6428 22.357C27.0177 21.7319 26.6665 20.884 26.6665 20C26.6665 19.1159 27.0177 18.2681 27.6428 17.6429C28.2679 17.0178 29.1158 16.6666 29.9998 16.6666C30.8839 16.6666 31.7317 17.0178 32.3569 17.6429C32.982 18.2681 33.3332 19.1159 33.3332 20ZM29.9998 33.3333C30.8839 33.3333 31.7317 32.9821 32.3569 32.357C32.982 31.7319 33.3332 30.884 33.3332 30C33.3332 29.1159 32.982 28.2681 32.3569 27.6429C31.7317 27.0178 30.8839 26.6666 29.9998 26.6666C29.1158 26.6666 28.2679 27.0178 27.6428 27.6429C27.0177 28.2681 26.6665 29.1159 26.6665 30C26.6665 30.884 27.0177 31.7319 27.6428 32.357C28.2679 32.9821 29.1158 33.3333 29.9998 33.3333Z" fill="black"/>
</g>
</g>
</g>
<defs>
<clipPath id="clip0_0_1">
<rect width="1440" height="1161" fill="white" transform="translate(-17 -18)"/>
</clipPath>
</defs>
</svg>
