<svg width="24" height="24" viewBox="0 0 24 24" fill="none" xmlns="http://www.w3.org/2000/svg">
<rect width="24" height="24" rx="4" fill="#F2C618"/>
<path d="M4.5 17.25C4.5 18.525 5.475 19.5 6.75 19.5H17.25C18.525 19.5 19.5 18.525 19.5 17.25V11.25H4.5V17.25ZM17.25 6H15.75V5.25C15.75 4.8 15.45 4.5 15 4.5C14.55 4.5 14.25 4.8 14.25 5.25V6H9.75V5.25C9.75 4.8 9.45 4.5 9 4.5C8.55 4.5 8.25 4.8 8.25 5.25V6H6.75C5.475 6 4.5 6.975 4.5 8.25V9.75H19.5V8.25C19.5 6.975 18.525 6 17.25 6Z" fill="white"/>
</svg>
