<svg width="18" height="18" viewBox="0 0 18 18" fill="none" xmlns="http://www.w3.org/2000/svg">
<path fill-rule="evenodd" clip-rule="evenodd" d="M14.3308 13.7423L14.0193 14.0538C13.6731 14.3999 13.2231 14.573 12.7385 14.573H11.8385C11.0077 14.573 10.1077 13.9153 10.1077 12.773V11.9076C10.1077 11.2153 10.4193 10.7999 10.5924 10.5576L14.3308 6.74994C14.4347 6.6461 14.5385 6.40379 14.5385 6.26533V3.39225C14.5385 2.49225 13.777 1.73071 12.877 1.73071H4.01545C3.11545 1.73071 2.35392 2.56148 2.35392 3.39225H1.80007C1.177 3.39225 0.692383 3.91148 0.692383 4.53456C0.692383 5.15764 1.177 5.64225 1.80007 5.64225H2.35392V7.89225H1.80007C1.177 7.89225 0.692383 8.37687 0.692383 8.99994C0.692383 9.62302 1.177 10.1076 1.80007 10.1076H2.35392V12.3576H1.80007C1.177 12.3576 0.692383 12.8769 0.692383 13.4653C0.692383 14.0884 1.177 14.573 1.80007 14.573H2.35392C2.35392 15.6807 3.11545 16.2346 4.01545 16.2346H12.877C13.777 16.2346 14.5385 15.473 14.5385 14.573V13.8461C14.5385 13.673 14.4693 13.6384 14.3308 13.7423ZM11.4924 5.91902C11.4924 6.23055 11.2501 6.47286 10.9386 6.47286H5.40011C5.08858 6.47286 4.84627 6.23055 4.84627 5.91902V5.36517C4.84627 5.05363 5.08858 4.81132 5.40011 4.81132H10.9386C11.2501 4.81132 11.4924 5.05363 11.4924 5.36517V5.91902ZM9.0001 12.6349C9.0001 12.9464 8.7578 13.1887 8.44626 13.1887H5.40011C5.08858 13.1887 4.84627 12.9464 4.84627 12.6349V12.0811C4.84627 11.7695 5.08858 11.5272 5.40011 11.5272H8.44626C8.7578 11.5272 9.0001 11.7695 9.0001 12.0811V12.6349ZM9.83087 9.27746C9.83087 9.589 9.58856 9.83131 9.27703 9.83131H5.40011C5.08858 9.83131 4.84627 9.589 4.84627 9.27746V8.72361C4.84627 8.41207 5.08858 8.16977 5.40011 8.16977H9.27703C9.58856 8.16977 9.83087 8.41207 9.83087 8.72361V9.27746ZM17.1347 7.75327L16.7886 7.40712C16.5809 7.19943 16.2347 7.19943 16.027 7.40712L11.804 11.7687C11.7693 11.7687 11.7693 11.8379 11.7693 11.8379V12.7725C11.7693 12.8417 11.7693 12.911 11.8386 12.911H12.7386C12.7732 12.911 12.8078 12.8764 12.8424 12.8764L17.1001 8.58404C17.377 8.34174 17.377 7.99558 17.1347 7.75327Z" fill="#747474"/>
</svg>
