<svg width="56" height="56" viewBox="0 0 56 56" fill="none" xmlns="http://www.w3.org/2000/svg">
<circle cx="28" cy="28" r="28" fill="#F4F7FE"/>
<mask id="mask0_64_5607" style="mask-type:alpha" maskUnits="userSpaceOnUse" x="12" y="12" width="32" height="32">
<rect x="12" y="12" width="32" height="32" fill="#4318FF"/>
</mask>
<g mask="url(#mask0_64_5607)">
<path d="M25.7 28C25.0778 28 24.5667 27.7667 24.1667 27.3C23.7667 26.8333 23.6222 26.2889 23.7333 25.6667L24.1333 23.2667C24.3111 22.3111 24.7611 21.5278 25.4833 20.9167C26.2056 20.3056 27.0444 20 28 20C28.9778 20 29.8278 20.3056 30.55 20.9167C31.2722 21.5278 31.7222 22.3111 31.9 23.2667L32.3 25.6667C32.4111 26.2889 32.2667 26.8333 31.8667 27.3C31.4667 27.7667 30.9556 28 30.3333 28H25.7ZM26.5 25.3333H29.5333L29.2667 23.7C29.2222 23.3889 29.0778 23.1389 28.8333 22.95C28.5889 22.7611 28.3111 22.6667 28 22.6667C27.6889 22.6667 27.4167 22.7611 27.1833 22.95C26.95 23.1389 26.8111 23.3889 26.7667 23.7L26.5 25.3333ZM16.1333 29.3C15.6222 29.3222 15.1833 29.2222 14.8167 29C14.45 28.7778 14.2111 28.4333 14.1 27.9667C14.0556 27.7667 14.0444 27.5667 14.0667 27.3667C14.0889 27.1667 14.1444 26.9778 14.2333 26.8C14.2333 26.8222 14.2222 26.7778 14.2 26.6667C14.1556 26.6222 14.0444 26.3556 13.8667 25.8667C13.8222 25.6 13.8556 25.3444 13.9667 25.1C14.0778 24.8556 14.2222 24.6444 14.4 24.4667L14.4667 24.4C14.5111 23.9778 14.6833 23.6222 14.9833 23.3333C15.2833 23.0444 15.6556 22.9 16.1 22.9C16.1667 22.9 16.3778 22.9444 16.7333 23.0333L16.8333 23C16.9444 22.8889 17.0889 22.8056 17.2667 22.75C17.4444 22.6944 17.6333 22.6667 17.8333 22.6667C18.0778 22.6667 18.2944 22.7056 18.4833 22.7833C18.6722 22.8611 18.8222 22.9778 18.9333 23.1333C18.9556 23.1333 18.9722 23.1389 18.9833 23.15C18.9944 23.1611 19.0111 23.1667 19.0333 23.1667C19.3444 23.1889 19.6167 23.2833 19.85 23.45C20.0833 23.6167 20.2556 23.8444 20.3667 24.1333C20.4111 24.2889 20.4278 24.4389 20.4167 24.5833C20.4056 24.7278 20.3778 24.8667 20.3333 25C20.3333 25.0222 20.3444 25.0667 20.3667 25.1333C20.5222 25.2889 20.6444 25.4611 20.7333 25.65C20.8222 25.8389 20.8667 26.0333 20.8667 26.2333C20.8667 26.3222 20.8 26.5556 20.6667 26.9333C20.6444 26.9778 20.6444 27.0222 20.6667 27.0667L20.7333 27.6C20.7333 28.0667 20.5389 28.4667 20.15 28.8C19.7611 29.1333 19.2889 29.3 18.7333 29.3H16.1333ZM38.6667 29.3333C37.9333 29.3333 37.3056 29.0722 36.7833 28.55C36.2611 28.0278 36 27.4 36 26.6667C36 26.4 36.0389 26.15 36.1167 25.9167C36.1944 25.6833 36.3 25.4556 36.4333 25.2333L35.5 24.4C35.2778 24.2222 35.2389 24 35.3833 23.7333C35.5278 23.4667 35.7333 23.3333 36 23.3333H38.6667C39.4 23.3333 40.0278 23.5944 40.55 24.1167C41.0722 24.6389 41.3333 25.2667 41.3333 26V26.6667C41.3333 27.4 41.0722 28.0278 40.55 28.55C40.0278 29.0722 39.4 29.3333 38.6667 29.3333ZM12 36V33.9C12 32.9222 12.4944 32.1389 13.4833 31.55C14.4722 30.9611 15.7556 30.6667 17.3333 30.6667C17.6222 30.6667 17.9 30.6722 18.1667 30.6833C18.4333 30.6944 18.6889 30.7222 18.9333 30.7667C18.6222 31.2111 18.3889 31.6889 18.2333 32.2C18.0778 32.7111 18 33.2556 18 33.8333V36H12ZM20 36V33.8333C20 32.3889 20.7389 31.2222 22.2167 30.3333C23.6944 29.4444 25.6222 29 28 29C30.4 29 32.3333 29.4444 33.8 30.3333C35.2667 31.2222 36 32.3889 36 33.8333V36H20ZM38.6667 30.6667C40.2667 30.6667 41.5556 30.9611 42.5333 31.55C43.5111 32.1389 44 32.9222 44 33.9V36H38V33.8333C38 33.2556 37.9278 32.7111 37.7833 32.2C37.6389 31.6889 37.4222 31.2111 37.1333 30.7667C37.3778 30.7222 37.6278 30.6944 37.8833 30.6833C38.1389 30.6722 38.4 30.6667 38.6667 30.6667ZM28 31.6667C26.7333 31.6667 25.6 31.8333 24.6 32.1667C23.6 32.5 23.0111 32.8889 22.8333 33.3333H33.2C33 32.8889 32.4056 32.5 31.4167 32.1667C30.4278 31.8333 29.2889 31.6667 28 31.6667Z" fill="#4318FF"/>
</g>
</svg>
