<svg width="76" height="76" viewBox="0 0 76 76" fill="none" xmlns="http://www.w3.org/2000/svg">
<path d="M14.9375 57.125C18.125 54.6875 21.6875 52.7656 25.625 51.3594C29.5625 49.9531 33.6875 49.25 38 49.25C42.3125 49.25 46.4375 49.9531 50.375 51.3594C54.3125 52.7656 57.875 54.6875 61.0625 57.125C63.25 54.5625 64.9531 51.6563 66.1719 48.4063C67.3906 45.1562 68 41.6875 68 38C68 29.6875 65.0781 22.6094 59.2344 16.7656C53.3906 10.9219 46.3125 8 38 8C29.6875 8 22.6094 10.9219 16.7656 16.7656C10.9219 22.6094 8 29.6875 8 38C8 41.6875 8.60938 45.1562 9.82812 48.4063C11.0469 51.6563 12.75 54.5625 14.9375 57.125ZM38 41.75C34.3125 41.75 31.2031 40.4844 28.6719 37.9531C26.1406 35.4219 24.875 32.3125 24.875 28.625C24.875 24.9375 26.1406 21.8281 28.6719 19.2969C31.2031 16.7656 34.3125 15.5 38 15.5C41.6875 15.5 44.7969 16.7656 47.3281 19.2969C49.8594 21.8281 51.125 24.9375 51.125 28.625C51.125 32.3125 49.8594 35.4219 47.3281 37.9531C44.7969 40.4844 41.6875 41.75 38 41.75ZM38 75.5C32.8125 75.5 27.9375 74.5156 23.375 72.5469C18.8125 70.5781 14.8438 67.9062 11.4688 64.5312C8.09375 61.1563 5.42188 57.1875 3.45312 52.625C1.48438 48.0625 0.5 43.1875 0.5 38C0.5 32.8125 1.48438 27.9375 3.45312 23.375C5.42188 18.8125 8.09375 14.8438 11.4688 11.4688C14.8438 8.09375 18.8125 5.42188 23.375 3.45312C27.9375 1.48438 32.8125 0.5 38 0.5C43.1875 0.5 48.0625 1.48438 52.625 3.45312C57.1875 5.42188 61.1563 8.09375 64.5312 11.4688C67.9062 14.8438 70.5781 18.8125 72.5469 23.375C74.5156 27.9375 75.5 32.8125 75.5 38C75.5 43.1875 74.5156 48.0625 72.5469 52.625C70.5781 57.1875 67.9062 61.1563 64.5312 64.5312C61.1563 67.9062 57.1875 70.5781 52.625 72.5469C48.0625 74.5156 43.1875 75.5 38 75.5Z" fill="#808080"/>
</svg>
