<svg width="16" height="16" viewBox="0 0 16 16" fill="none" xmlns="http://www.w3.org/2000/svg">
<path fill-rule="evenodd" clip-rule="evenodd" d="M14.3076 0.615356H1.69225C1.4461 0.615356 1.23071 0.830737 1.23071 1.07689V2.61532C1.23071 2.86147 1.4461 3.07685 1.69225 3.07685H14.3076C14.5538 3.07685 14.7691 2.86147 14.7691 2.61532V1.07689C14.7691 0.830737 14.5538 0.615356 14.3076 0.615356ZM4.46147 4.30844H1.69225C1.4461 4.30844 1.23071 4.52382 1.23071 4.76997V5.69303C1.23071 5.93918 1.4461 6.15456 1.69225 6.15456H4.46147C4.70763 6.15456 4.92301 5.93918 4.92301 5.69303V4.76997C4.92301 4.52382 4.70763 4.30844 4.46147 4.30844ZM9.38452 4.30844H6.61529C6.36914 4.30844 6.15375 4.52382 6.15375 4.76997V5.69303C6.15375 5.93918 6.36914 6.15456 6.61529 6.15456H9.38452C9.63067 6.15456 9.84605 5.93918 9.84605 5.69303V4.76997C9.84605 4.52382 9.63067 4.30844 9.38452 4.30844ZM14.3077 4.30844H11.5384C11.2923 4.30844 11.0769 4.52382 11.0769 4.76997V5.69303C11.0769 5.93918 11.2923 6.15456 11.5384 6.15456H14.3077C14.5538 6.15456 14.7692 5.93918 14.7692 5.69303V4.76997C14.7692 4.52382 14.5538 4.30844 14.3077 4.30844ZM4.46147 7.38426H1.69225C1.4461 7.38426 1.23071 7.59964 1.23071 7.84579V8.76885C1.23071 9.015 1.4461 9.23038 1.69225 9.23038H4.46147C4.70763 9.23038 4.92301 9.015 4.92301 8.76885V7.84579C4.92301 7.59964 4.70763 7.38426 4.46147 7.38426ZM9.38452 7.38426H6.61529C6.36914 7.38426 6.15375 7.59964 6.15375 7.84579V8.76885C6.15375 9.015 6.36914 9.23038 6.61529 9.23038H9.38452C9.63067 9.23038 9.84605 9.015 9.84605 8.76885V7.84579C9.84605 7.59964 9.63067 7.38426 9.38452 7.38426ZM14.3077 7.38426H11.5384C11.2923 7.38426 11.0769 7.59964 11.0769 7.84579V8.76885C11.0769 9.015 11.2923 9.23038 11.5384 9.23038H14.3077C14.5538 9.23038 14.7692 9.015 14.7692 8.76885V7.84579C14.7692 7.59964 14.5538 7.38426 14.3077 7.38426ZM4.46147 10.4603H1.69225C1.4461 10.4603 1.23071 10.6757 1.23071 10.9218V11.8449C1.23071 12.0911 1.4461 12.3064 1.69225 12.3064H4.46147C4.70763 12.3064 4.92301 12.0911 4.92301 11.8449V10.9218C4.92301 10.6757 4.70763 10.4603 4.46147 10.4603ZM9.38452 10.4603H6.61529C6.36914 10.4603 6.15375 10.6757 6.15375 10.9218V11.8449C6.15375 12.0911 6.36914 12.3064 6.61529 12.3064H9.38452C9.63067 12.3064 9.84605 12.0911 9.84605 11.8449V10.9218C9.84605 10.6757 9.63067 10.4603 9.38452 10.4603ZM14.3077 10.4603H11.5384C11.2923 10.4603 11.0769 10.6757 11.0769 10.9218V11.8449C11.0769 12.0911 11.2923 12.3064 11.5384 12.3064H14.3077C14.5538 12.3064 14.7692 12.0911 14.7692 11.8449V10.9218C14.7692 10.6757 14.5538 10.4603 14.3077 10.4603ZM4.46147 13.5385H1.69225C1.4461 13.5385 1.23071 13.7539 1.23071 14V14.9231C1.23071 15.1693 1.4461 15.3846 1.69225 15.3846H4.46147C4.70763 15.3846 4.92301 15.1693 4.92301 14.9231V14C4.92301 13.7539 4.70763 13.5385 4.46147 13.5385ZM9.38452 13.5385H6.61529C6.36914 13.5385 6.15375 13.7539 6.15375 14V14.9231C6.15375 15.1693 6.36914 15.3846 6.61529 15.3846H9.38452C9.63067 15.3846 9.84605 15.1693 9.84605 14.9231V14C9.84605 13.7539 9.63067 13.5385 9.38452 13.5385ZM14.3077 13.5385H11.5384C11.2923 13.5385 11.0769 13.7539 11.0769 14V14.9231C11.0769 15.1693 11.2923 15.3846 11.5384 15.3846H14.3077C14.5538 15.3846 14.7692 15.1693 14.7692 14.9231V14C14.7692 13.7539 14.5538 13.5385 14.3077 13.5385Z" fill="#747474"/>
</svg>
