<svg width="48" height="48" viewBox="0 0 48 48" fill="none" xmlns="http://www.w3.org/2000/svg">
<rect width="48" height="48" fill="#F5F5F5"/>
<g clip-path="url(#clip0_0_1)">
<rect width="1440" height="1019" transform="translate(-40 -123)" fill="#F4F6F9"/>
<rect x="-20" y="-12" width="1400" height="905" rx="8" fill="white"/>
<rect x="-19.5" y="-11.5" width="1399" height="904" rx="7.5" stroke="black" stroke-opacity="0.07"/>
<rect width="48" height="48" rx="4" fill="#DE4E50"/>
<mask id="mask0_0_1" style="mask-type:alpha" maskUnits="userSpaceOnUse" x="1" y="1" width="46" height="46">
<rect x="1.84668" y="1.84631" width="44.3077" height="44.3077" fill="#D9D9D9"/>
</mask>
<g mask="url(#mask0_0_1)">
<path d="M23.9997 29.5386C25.7228 29.5386 27.2766 29.1155 28.6612 28.2693C30.0459 27.4232 31.1382 26.3078 31.9382 24.9232C30.8612 24.0309 29.6459 23.3463 28.292 22.8693C26.9382 22.3924 25.5074 22.154 23.9997 22.154C22.492 22.154 21.0612 22.3924 19.7074 22.8693C18.3535 23.3463 17.1382 24.0309 16.0612 24.9232C16.8612 26.3078 17.9535 27.4232 19.3382 28.2693C20.7228 29.1155 22.2766 29.5386 23.9997 29.5386ZM23.9997 20.3078C25.0151 20.3078 25.8843 19.9463 26.6074 19.2232C27.3305 18.5001 27.692 17.6309 27.692 16.6155C27.692 15.6001 27.3305 14.7309 26.6074 14.0078C25.8843 13.2847 25.0151 12.9232 23.9997 12.9232C22.9843 12.9232 22.1151 13.2847 21.392 14.0078C20.6689 14.7309 20.3074 15.6001 20.3074 16.6155C20.3074 17.6309 20.6689 18.5001 21.392 19.2232C22.1151 19.9463 22.9843 20.3078 23.9997 20.3078ZM23.9997 37.5693C27.7535 34.1232 30.5382 30.9924 32.3535 28.177C34.1689 25.3617 35.0766 22.8617 35.0766 20.677C35.0766 17.3232 34.0074 14.577 31.8689 12.4386C29.7305 10.3001 27.1074 9.23088 23.9997 9.23088C20.892 9.23088 18.2689 10.3001 16.1305 12.4386C13.992 14.577 12.9228 17.3232 12.9228 20.677C12.9228 22.8617 13.8305 25.3617 15.6459 28.177C17.4612 30.9924 20.2459 34.1232 23.9997 37.5693ZM23.9997 42.4617C19.0459 38.2463 15.3459 34.3309 12.8997 30.7155C10.4535 27.1001 9.23047 23.754 9.23047 20.677C9.23047 16.0617 10.7151 12.3847 13.6843 9.64627C16.6535 6.90781 20.092 5.53857 23.9997 5.53857C27.9074 5.53857 31.3459 6.90781 34.3151 9.64627C37.2843 12.3847 38.7689 16.0617 38.7689 20.677C38.7689 23.754 37.5459 27.1001 35.0997 30.7155C32.6535 34.3309 28.9535 38.2463 23.9997 42.4617Z" fill="white"/>
</g>
</g>
<defs>
<clipPath id="clip0_0_1">
<rect width="1440" height="1019" fill="white" transform="translate(-40 -123)"/>
</clipPath>
</defs>
</svg>
