<svg width="24" height="24" viewBox="0 0 24 24" fill="none" xmlns="http://www.w3.org/2000/svg">
<rect width="24" height="24" rx="4" fill="#60D668"/>
<g clip-path="url(#clip0_161_7627)">
<path d="M3.38119 11.8922C3.38077 13.4046 3.77593 14.8813 4.52733 16.1828L3.30933 20.63L7.8604 19.4367C9.11916 20.1219 10.5295 20.481 11.9627 20.4811H11.9665C16.6978 20.4811 20.5491 16.6311 20.5512 11.899C20.5521 9.60594 19.6599 7.44971 18.0389 5.82748C16.4182 4.20538 14.2627 3.31159 11.9661 3.31055C7.2343 3.31055 3.38321 7.16031 3.38126 11.8922" fill="url(#paint0_linear_161_7627)"/>
<path d="M3.07465 11.8895C3.07416 13.4563 3.48349 14.9858 4.26167 16.334L3 20.9405L7.71426 19.7044C9.01319 20.4126 10.4757 20.786 11.9638 20.7866H11.9676C16.8687 20.7866 20.8584 16.7981 20.8605 11.8966C20.8613 9.52116 19.937 7.28742 18.2581 5.60707C16.579 3.92693 14.3465 3.00098 11.9676 3C7.06577 3 3.0766 6.98791 3.07465 11.8895ZM5.88216 16.1018L5.70614 15.8223C4.96619 14.6458 4.57563 13.2862 4.57619 11.89C4.57772 7.81598 7.89335 4.5014 11.9704 4.5014C13.9448 4.50223 15.8004 5.27191 17.196 6.66837C18.5916 8.06498 19.3595 9.92149 19.359 11.896C19.3572 15.9701 16.0415 19.2851 11.9676 19.2851H11.9647C10.6382 19.2844 9.33726 18.9282 8.2027 18.255L7.9327 18.0949L5.13516 18.8284L5.88216 16.1018Z" fill="url(#paint1_linear_161_7627)"/>
<path d="M9.74502 8.17328C9.57856 7.8033 9.40337 7.79584 9.24507 7.78935C9.11544 7.78377 8.96725 7.78419 8.81921 7.78419C8.67102 7.78419 8.43025 7.83993 8.22674 8.06214C8.02302 8.28456 7.44897 8.82205 7.44897 9.91523C7.44897 11.0085 8.24523 12.065 8.35623 12.2134C8.46737 12.3615 9.89342 14.6767 12.1519 15.5673C14.029 16.3075 14.4109 16.1603 14.8183 16.1231C15.2257 16.0862 16.133 15.5858 16.3181 15.0669C16.5033 14.5481 16.5033 14.1034 16.4478 14.0105C16.3923 13.9179 16.2441 13.8623 16.0219 13.7513C15.7996 13.6401 14.7072 13.1026 14.5035 13.0284C14.2998 12.9543 14.1517 12.9173 14.0035 13.1398C13.8553 13.362 13.4298 13.8623 13.3001 14.0105C13.1705 14.159 13.0408 14.1775 12.8187 14.0664C12.5963 13.9549 11.8807 13.7206 11.0317 12.9637C10.3712 12.3747 9.92523 11.6473 9.7956 11.4249C9.66597 11.2027 9.78172 11.0823 9.89314 10.9716C9.99297 10.872 10.1154 10.7121 10.2266 10.5824C10.3374 10.4527 10.3744 10.3601 10.4485 10.2119C10.5226 10.0636 10.4855 9.93379 10.4301 9.82265C10.3744 9.71151 9.9426 8.61261 9.74502 8.17328Z" fill="white"/>
</g>
<defs>
<linearGradient id="paint0_linear_161_7627" x1="865.401" y1="1735.25" x2="865.401" y2="3.31055" gradientUnits="userSpaceOnUse">
<stop stop-color="#1FAF38"/>
<stop offset="1" stop-color="#60D669"/>
</linearGradient>
<linearGradient id="paint1_linear_161_7627" x1="896.023" y1="1797.05" x2="896.023" y2="3" gradientUnits="userSpaceOnUse">
<stop stop-color="#F9F9F9"/>
<stop offset="1" stop-color="white"/>
</linearGradient>
<clipPath id="clip0_161_7627">
<rect width="17.8605" height="18" fill="white" transform="translate(3 3)"/>
</clipPath>
</defs>
</svg>
